<?xml version="1.0" encoding="UTF-8"?>
<svg width="113.86mm" height="176.99mm" version="1.1" viewBox="0 0 113.86 176.99" xmlns="http://www.w3.org/2000/svg">
<defs>
<radialGradient id="a" cx="390.26" cy="190.33" r="36.626" gradientTransform="translate(-333.33 -101.83)" gradientUnits="userSpaceOnUse">
<stop offset="0"/>
<stop stop-color="#464646" offset="1"/>
</radialGradient>
</defs>
<rect x="-1.0071e-6" y="5.4932e-8" width="113.86" height="176.99" ry="7.7266" fill="#2d3748"/>
<path d="m99.96 16.29a2.9104 2.9104 0 0 0-1.7327 0.83457l-5.8126 5.8126a2.9104 2.9104 0 0 0 0 4.1171 2.9104 2.9104 0 0 0 4.115 0l5.8146-5.8141a2.9104 2.9104 0 0 0 0-4.1155 2.9104 2.9104 0 0 0-2.3844-0.83457zm-14.297 2.8639a2.9104 2.9104 0 0 0-2.0567 0.85369l-3.5956 3.5936a2.9104 2.9104 0 0 0 0 4.1155 2.9104 2.9104 0 0 0 4.1155 0l3.5956-3.5941a2.9104 2.9104 0 0 0 0-4.115 2.9104 2.9104 0 0 0-2.0588-0.85369zm21.891 2.4433-24.453 24.453a49.928 49.928 0 0 1 4.8271 3.4039l19.626-19.625zm-18.344 6.9799a2.9104 2.9104 0 0 0-1.85 0.84491l-12.51 12.51a49.928 49.928 0 0 1 5.6327 2.5998l10.993-10.993a2.9104 2.9104 0 0 0 0-4.1171 2.9104 2.9104 0 0 0-2.2655-0.84491zm-12.461 0.64854a2.9104 2.9104 0 0 0-1.85 0.84491l-9.2646 9.2646a49.928 49.928 0 0 1 6.5769 1.6552l6.8027-6.8027a2.9104 2.9104 0 0 0 0-4.1171 2.9104 2.9104 0 0 0-2.265-0.84491zm-15.092 3.6504a2.9104 2.9104 0 0 0-1.85 0.84439l-4.8917 4.8917a49.928 49.928 0 0 1 1.8629-0.06976 49.928 49.928 0 0 1 6.0648 0.3731l1.0795-1.0795a2.9104 2.9104 0 0 0 0-4.1155 2.9104 2.9104 0 0 0-2.2655-0.84439zm45.897 0.66352-17.613 17.612a49.928 49.928 0 0 1 4.1186 4.1134l13.494-13.494zm-7.66 20.769a2.9104 2.9104 0 0 0-1.9053 0.84801l-2.1808 2.1808a49.928 49.928 0 0 1 3.4029 4.8297l2.8934-2.8934a2.9104 2.9104 0 0 0 0-4.1171 2.9104 2.9104 0 0 0-2.2102-0.84801zm7.66 3.8809a2.9104 2.9104 0 0 0-0.2527 0.20722l-6.5081 6.5081a49.928 49.928 0 0 1 2.5838 5.6482l4.177-4.1765zm0 12.076a2.9104 2.9104 0 0 0-0.2527 0.20722l-2.9259 2.9254a49.928 49.928 0 0 1 1.6071 6.6249l1.5715-1.572z" color="#000000" fill="#4a5568" stroke-linecap="round"/>
<path d="m13.894 160.69a2.9104 2.9104 0 0 0 1.7327-0.83458l5.8126-5.8126a2.9104 2.9104 0 0 0 0-4.1171 2.9104 2.9104 0 0 0-4.115 0l-5.8146 5.8141a2.9104 2.9104 0 0 0 0 4.1155 2.9104 2.9104 0 0 0 2.3844 0.83458zm14.297-2.8639a2.9104 2.9104 0 0 0 2.0567-0.8537l3.5956-3.5936a2.9104 2.9104 0 0 0 0-4.1155 2.9104 2.9104 0 0 0-4.1155 0l-3.5956 3.5941a2.9104 2.9104 0 0 0 0 4.115 2.9104 2.9104 0 0 0 2.0588 0.8537zm-21.891-2.4433 24.453-24.453a49.928 49.928 0 0 1-4.8271-3.4039l-19.626 19.625zm18.344-6.9799a2.9104 2.9104 0 0 0 1.85-0.84491l12.51-12.51a49.928 49.928 0 0 1-5.6327-2.5998l-10.993 10.993a2.9104 2.9104 0 0 0 0 4.1171 2.9104 2.9104 0 0 0 2.2655 0.84491zm12.461-0.64854a2.9104 2.9104 0 0 0 1.85-0.84491l9.2645-9.2646a49.928 49.928 0 0 1-6.5769-1.6552l-6.8027 6.8027a2.9104 2.9104 0 0 0 0 4.1171 2.9104 2.9104 0 0 0 2.265 0.84491zm15.092-3.6504a2.9104 2.9104 0 0 0 1.85-0.84439l4.8917-4.8917a49.928 49.928 0 0 1-1.8629 0.0698 49.928 49.928 0 0 1-6.0648-0.3731l-1.0795 1.0795a2.9104 2.9104 0 0 0 0 4.1155 2.9104 2.9104 0 0 0 2.2655 0.84439zm-45.897-0.66353 17.613-17.612a49.928 49.928 0 0 1-4.1186-4.1134l-13.494 13.494zm7.66-20.769a2.9104 2.9104 0 0 0 1.9053-0.84801l2.1808-2.1808a49.928 49.928 0 0 1-3.4029-4.8297l-2.8934 2.8934a2.9104 2.9104 0 0 0 0 4.1171 2.9104 2.9104 0 0 0 2.2102 0.84801zm-7.66-3.8809a2.9104 2.9104 0 0 0 0.2527-0.20722l6.5081-6.5081a49.928 49.928 0 0 1-2.5838-5.6482l-4.177 4.1765zm0-12.076a2.9104 2.9104 0 0 0 0.2527-0.20722l2.9259-2.9254a49.928 49.928 0 0 1-1.6071-6.6249l-1.5715 1.572z" color="#000000" fill="#4a5568" stroke-linecap="round"/>
<circle cx="56.928" cy="88.496" r="36.626" fill="url(#a)" style="paint-order:normal"/>
<g transform="translate(-305.5 -12.046)">
<path d="m330.61 68.721c17.545-17.545 46.096-17.545 63.642 3e-6a3.4017 3.4017 0 0 1 0 4.8107 3.4017 3.4017 0 0 1-4.8107 0c-14.946-14.946-39.075-14.946-54.02-3e-6a3.4017 3.4017 0 0 1-4.8106 0 3.4017 3.4017 0 0 1 0-4.8107z" color="#000000" fill="#edde32" stroke-linecap="round"/>
<path d="m389.44 68.724a3.4017 3.4017 0 0 1 4.8107 3e-6c17.545 17.545 17.545 46.096 0 63.642a3.4017 3.4017 0 0 1-0.0409 0.0337c0.0127-0.0127 0.0257-0.0249 0.0384-0.0377a3.4017 3.4017 0 0 0 1e-5 -4.8107 3.4017 3.4017 0 0 0-4.7756-0.0288c14.913-14.948 14.902-39.053-0.0323-53.988a3.4017 3.4017 0 0 1-3.6e-4 -4.8104z" color="#000000" fill="#76af68" stroke-linecap="round"/>
<path d="m330.57 132.32c0.0141 0.0141 0.0278 0.0285 0.0419 0.0426a3.4017 3.4017 0 0 0 4.8104 3.6e-4 3.4017 3.4017 0 0 0 0.0288-4.7756c14.948 14.913 39.053 14.902 53.988-0.0323a3.4017 3.4017 0 0 1 4.8107 0 3.4017 3.4017 0 0 1-1e-5 4.8107c-17.545 17.545-46.097 17.545-63.642-3.5e-4a3.4017 3.4017 0 0 1-0.0374-0.0457z" color="#000000" fill="#f24139" stroke-linecap="round"/>
<path d="m330.61 68.717a3.4017 3.4017 0 0 1 0.0455-0.03766c-0.0141 0.01407-0.0285 0.02775-0.0426 0.04191a3.4017 3.4017 0 0 0-1e-5 4.8107 3.4017 3.4017 0 0 0 4.7756 0.02876c-14.913 14.948-14.903 39.053 0.032 53.988a3.4017 3.4017 0 0 1 0 4.8107 3.4017 3.4017 0 0 1-4.8104-3.5e-4c-17.545-17.545-17.545-46.096 0-63.642z" color="#000000" fill="#1490df" stroke-linecap="round"/>
<path d="m362.43 54.217c-25.545 0-46.279 20.755-46.279 46.324s20.734 46.326 46.279 46.326 46.279-20.757 46.279-46.326-20.734-46.324-46.279-46.324zm0 2.5c24.192 0 43.779 19.605 43.779 43.824s-19.587 43.826-43.779 43.826-43.779-19.607-43.779-43.826 19.587-43.824 43.779-43.824z" color="#000000"/>
<path d="m362.43 62.107c-21.192 0-38.396 17.222-38.396 38.434s17.204 38.436 38.396 38.436 38.396-17.224 38.396-38.436-17.204-38.434-38.396-38.434zm0 2.5c19.84 0 35.896 16.072 35.896 35.934s-16.057 35.936-35.896 35.936-35.896-16.074-35.896-35.936 16.057-35.934 35.896-35.934z" color="#000000"/>
</g>
<text x="41.89106" y="106.47948" fill="#f9f9f9" font-family="Avenir" font-size="50.8px" font-weight="bold" stroke-width="29.686" xml:space="preserve"><tspan x="41.89106" y="106.47948" fill="#f9f9f9" font-size="50.8px" stroke-width="29.687">4</tspan></text>
<text x="33.211273" y="16.049414" fill="#f9f9f9" font-family="Avenir" font-size="6.35px" font-weight="bold" stroke-width="29.686" xml:space="preserve"><tspan x="33.211273" y="16.049414" fill="#f9f9f9" font-size="6.35px" stroke-width="29.687">Move backward 4.</tspan></text>
<path d="m18.056 6.4551a12.371 11.681 0 0 0-1.7032 0.11369 12.371 11.681 0 0 0-9.9968 7.8259l0.0124 0.0052v31.942l22.591-22.591a31.949 31.949 0 0 0-0.0238-0.02222 12.371 11.681 0 0 0-0.68885-12.239 12.371 11.681 0 0 0-10.191-5.0338z" fill="#4a5568" style="paint-order:normal"/>
<text x="12.964362" y="22.820745" fill="#f9f9f9" font-family="Avenir" font-size="15.038px" font-weight="bold" stroke-width="39.544" xml:space="preserve"><tspan x="12.964362" y="22.820745" fill="#f9f9f9" font-size="15.038px" stroke-width="39.545">4</tspan></text>
<text transform="scale(-1)" x="-80.644447" y="-160.94312" fill="#f9f9f9" font-family="Avenir" font-size="6.35px" font-weight="bold" stroke-width="29.686" xml:space="preserve"><tspan x="-80.644447" y="-160.94312" fill="#f9f9f9" font-size="6.35px" stroke-width="29.687">Move backward 4.</tspan></text>
<path d="m95.8 170.54a12.371 11.681 0 0 0 1.7032-0.11369 12.371 11.681 0 0 0 9.9968-7.8259l-0.0124-5e-3v-31.942l-22.591 22.591a31.949 31.949 0 0 0 0.0238 0.0222 12.371 11.681 0 0 0 0.68885 12.239 12.371 11.681 0 0 0 10.191 5.0338z" fill="#4a5568" style="paint-order:normal"/>
<text transform="scale(-1)" x="-100.89135" y="-154.17178" fill="#f9f9f9" font-family="Avenir" font-size="15.038px" font-weight="bold" stroke-width="39.544" xml:space="preserve"><tspan x="-100.89135" y="-154.17178" fill="#f9f9f9" font-size="15.038px" stroke-width="39.545">4</tspan></text>
</svg>
