<?xml version="1.0" encoding="UTF-8"?>
<svg width="114.12mm" height="177.26mm" version="1.1" viewBox="0 0 114.12 177.26" xmlns="http://www.w3.org/2000/svg" xmlns:xlink="http://www.w3.org/1999/xlink">
<defs>
<radialGradient id="a" cx="390.26" cy="190.33" r="36.626" gradientTransform="translate(-278.75 -75.934)" gradientUnits="userSpaceOnUse">
<stop offset="0"/>
<stop stop-color="#464646" offset="1"/>
</radialGradient>
</defs>
<g transform="translate(-54.45 -25.769)">
<rect x="54.582" y="25.901" width="113.86" height="176.99" ry="7.7266" fill="#fff"/>
<rect transform="scale(-1)" x="-161.96" y="-196.32" width="100.91" height="163.85" ry="0" fill="none"/>
<path d="m72.638 32.356a12.371 11.681 0 0 0-1.7033 0.11369 12.371 11.681 0 0 0-9.9968 7.8259l0.0124 0.0052v31.942l22.591-22.591a31.949 31.949 0 0 0-0.02377-0.02222 12.371 11.681 0 0 0-0.68885-12.239 12.371 11.681 0 0 0-10.191-5.0338zm-3.9093 6.3557h6.4957v2.0035h-4.2649l-0.04548 1.6542c0.23272-0.08095 0.55128-0.12144 0.95601-0.12144 0.54639 0 1.0474 0.08099 1.5028 0.24288 0.45532 0.16189 0.84514 0.39999 1.1689 0.71365 0.3339 0.30355 0.59147 0.67773 0.7736 1.1229 0.18213 0.43508 0.27337 0.92588 0.27337 1.4723 0 0.6071-0.10636 1.1486-0.31884 1.6242-0.20236 0.47556-0.4853 0.87998-0.84956 1.2139-0.36426 0.32378-0.79943 0.57161-1.3053 0.74362-0.49579 0.17201-1.0373 0.25838-1.6242 0.25838-0.93088 0-1.71-0.22784-2.3373-0.68316-0.62733-0.45532-1.0571-1.1432-1.2898-2.064l2.3828-0.54674c0.06071 0.38449 0.22268 0.69819 0.48576 0.94103 0.26308 0.23272 0.59189 0.34933 0.9865 0.34933 0.48568 0 0.87011-0.15172 1.1534-0.45527 0.29343-0.30355 0.44028-0.68798 0.44028-1.1534 0-0.35414-0.07612-0.64298-0.22789-0.86558-0.14166-0.23272-0.33387-0.41468-0.57671-0.54622-0.23272-0.14166-0.49567-0.23776-0.7891-0.28836-0.29343-0.05059-0.58714-0.07596-0.88057-0.07596-0.37438 0-0.75342 0.03563-1.1379 0.10645-0.37438 0.07083-0.73882 0.16694-1.093 0.28836z" fill-opacity=".99574" style="paint-order:normal"/>
<path d="m154.54 42.191a2.9104 2.9104 0 0 0-1.7327 0.83457l-5.8126 5.8126a2.9104 2.9104 0 0 0 0 4.1171 2.9104 2.9104 0 0 0 4.115 0l5.8146-5.8141a2.9104 2.9104 0 0 0 0-4.1155 2.9104 2.9104 0 0 0-2.3844-0.83457zm-14.297 2.8639a2.9104 2.9104 0 0 0-2.0567 0.85369l-3.5956 3.5936a2.9104 2.9104 0 0 0 0 4.1155 2.9104 2.9104 0 0 0 4.1155 0l3.5956-3.5941a2.9104 2.9104 0 0 0 0-4.115 2.9104 2.9104 0 0 0-2.0588-0.85369zm21.891 2.4433-24.453 24.453a49.928 49.928 0 0 1 4.8271 3.4039l19.626-19.625zm-18.344 6.9799a2.9104 2.9104 0 0 0-1.85 0.84491l-12.51 12.51a49.928 49.928 0 0 1 5.6327 2.5998l10.993-10.993a2.9104 2.9104 0 0 0 0-4.1171 2.9104 2.9104 0 0 0-2.2655-0.84491zm-12.461 0.64854a2.9104 2.9104 0 0 0-1.85 0.84491l-9.2646 9.2646a49.928 49.928 0 0 1 6.5769 1.6552l6.8027-6.8027a2.9104 2.9104 0 0 0 0-4.1171 2.9104 2.9104 0 0 0-2.265-0.84491zm-15.092 3.6504a2.9104 2.9104 0 0 0-1.85 0.84439l-4.8917 4.8917a49.928 49.928 0 0 1 1.8629-0.06976 49.928 49.928 0 0 1 6.0648 0.3731l1.0795-1.0795a2.9104 2.9104 0 0 0 0-4.1155 2.9104 2.9104 0 0 0-2.2655-0.84439zm45.897 0.66352-17.613 17.612a49.928 49.928 0 0 1 4.1186 4.1134l13.494-13.494zm-7.66 20.769a2.9104 2.9104 0 0 0-1.9053 0.84801l-2.1808 2.1808a49.928 49.928 0 0 1 3.4029 4.8297l2.8934-2.8934a2.9104 2.9104 0 0 0 0-4.1171 2.9104 2.9104 0 0 0-2.2102-0.84801zm7.66 3.8809a2.9104 2.9104 0 0 0-0.2527 0.20722l-6.5081 6.5081a49.928 49.928 0 0 1 2.5838 5.6482l4.177-4.1765zm0 12.076a2.9104 2.9104 0 0 0-0.2527 0.20722l-2.9259 2.9254a49.928 49.928 0 0 1 1.6071 6.6249l1.5715-1.572z" color="#000000" fill="#ccc" stroke-linecap="round"/>
<path d="m68.477 186.59a2.9104 2.9104 0 0 0 1.7327-0.83458l5.8126-5.8126a2.9104 2.9104 0 0 0 0-4.1171 2.9104 2.9104 0 0 0-4.115 0l-5.8146 5.8141a2.9104 2.9104 0 0 0 0 4.1155 2.9104 2.9104 0 0 0 2.3844 0.83458zm14.297-2.8639a2.9104 2.9104 0 0 0 2.0567-0.8537l3.5956-3.5936a2.9104 2.9104 0 0 0 0-4.1155 2.9104 2.9104 0 0 0-4.1155 0l-3.5956 3.5941a2.9104 2.9104 0 0 0 0 4.115 2.9104 2.9104 0 0 0 2.0588 0.8537zm-21.891-2.4433 24.453-24.453a49.928 49.928 0 0 1-4.8271-3.4039l-19.626 19.625zm18.344-6.9799a2.9104 2.9104 0 0 0 1.85-0.84491l12.51-12.51a49.928 49.928 0 0 1-5.6327-2.5998l-10.993 10.993a2.9104 2.9104 0 0 0 0 4.1171 2.9104 2.9104 0 0 0 2.2655 0.84491zm12.461-0.64854a2.9104 2.9104 0 0 0 1.85-0.84491l9.2646-9.2646a49.928 49.928 0 0 1-6.5769-1.6552l-6.8027 6.8027a2.9104 2.9104 0 0 0 0 4.1171 2.9104 2.9104 0 0 0 2.265 0.84491zm15.092-3.6504a2.9104 2.9104 0 0 0 1.85-0.84439l4.8917-4.8917a49.928 49.928 0 0 1-1.8629 0.0698 49.928 49.928 0 0 1-6.0648-0.3731l-1.0795 1.0795a2.9104 2.9104 0 0 0 0 4.1155 2.9104 2.9104 0 0 0 2.2655 0.84439zm-45.897-0.66353 17.613-17.612a49.928 49.928 0 0 1-4.1186-4.1134l-13.494 13.494zm7.66-20.769a2.9104 2.9104 0 0 0 1.9053-0.84801l2.1808-2.1808a49.928 49.928 0 0 1-3.4029-4.8297l-2.8934 2.8934a2.9104 2.9104 0 0 0 0 4.1171 2.9104 2.9104 0 0 0 2.2102 0.848zm-7.66-3.8809a2.9104 2.9104 0 0 0 0.2527-0.20722l6.5081-6.5081a49.928 49.928 0 0 1-2.5838-5.6482l-4.177 4.1765zm0-12.076a2.9104 2.9104 0 0 0 0.2527-0.20722l2.9259-2.9254a49.928 49.928 0 0 1-1.6071-6.6249l-1.5715 1.572z" color="#000000" fill="#ccc" stroke-linecap="round"/>
<circle cx="111.51" cy="114.4" r="36.626" fill="url(#a)" style="paint-order:normal"/>
<g transform="translate(-250.92 13.855)">
<path d="m330.61 68.721c17.545-17.545 46.096-17.545 63.642 3e-6a3.4017 3.4017 0 0 1 0 4.8107 3.4017 3.4017 0 0 1-4.8107 0c-14.946-14.946-39.075-14.946-54.02-3e-6a3.4017 3.4017 0 0 1-4.8106 0 3.4017 3.4017 0 0 1 0-4.8107z" color="#000000" fill="#edde32" stroke-linecap="round"/>
<path d="m389.44 68.724a3.4017 3.4017 0 0 1 4.8107 3e-6c17.545 17.545 17.545 46.096 0 63.642a3.4017 3.4017 0 0 1-0.0409 0.0337c0.0127-0.0127 0.0257-0.0249 0.0384-0.0377a3.4017 3.4017 0 0 0 1e-5 -4.8107 3.4017 3.4017 0 0 0-4.7756-0.0288c14.913-14.948 14.902-39.053-0.0323-53.988a3.4017 3.4017 0 0 1-3.6e-4 -4.8104z" color="#000000" fill="#76af68" stroke-linecap="round"/>
<path d="m330.57 132.32c0.0141 0.0141 0.0278 0.0285 0.0419 0.0426a3.4017 3.4017 0 0 0 4.8104 3.6e-4 3.4017 3.4017 0 0 0 0.0288-4.7756c14.948 14.913 39.053 14.902 53.988-0.0323a3.4017 3.4017 0 0 1 4.8107 0 3.4017 3.4017 0 0 1-1e-5 4.8107c-17.545 17.545-46.097 17.545-63.642-3.5e-4a3.4017 3.4017 0 0 1-0.0374-0.0457z" color="#000000" fill="#f24139" stroke-linecap="round"/>
<path d="m330.61 68.717a3.4017 3.4017 0 0 1 0.0455-0.03766c-0.0141 0.01407-0.0285 0.02775-0.0426 0.04191a3.4017 3.4017 0 0 0-1e-5 4.8107 3.4017 3.4017 0 0 0 4.7756 0.02876c-14.913 14.948-14.903 39.053 0.032 53.988a3.4017 3.4017 0 0 1 0 4.8107 3.4017 3.4017 0 0 1-4.8104-3.5e-4c-17.545-17.545-17.545-46.096 0-63.642z" color="#000000" fill="#1490df" stroke-linecap="round"/>
<path d="m362.43 54.217c-25.545 0-46.279 20.755-46.279 46.324 0 25.569 20.734 46.326 46.279 46.326 25.545 0 46.279-20.757 46.279-46.326 0-25.569-20.734-46.324-46.279-46.324zm0 2.5c24.192 0 43.779 19.605 43.779 43.824 0 24.219-19.587 43.826-43.779 43.826-24.192 0-43.779-19.607-43.779-43.826 0-24.219 19.587-43.824 43.779-43.824z" color="#000000"/>
<path d="m362.43 62.107c-21.192 0-38.396 17.222-38.396 38.434 0 21.212 17.204 38.436 38.396 38.436s38.396-17.224 38.396-38.436c0-21.212-17.204-38.434-38.396-38.434zm0 2.5c19.84 0 35.896 16.072 35.896 35.934 0 19.862-16.057 35.936-35.896 35.936s-35.896-16.074-35.896-35.936c0-19.862 16.057-35.934 35.896-35.934z" color="#000000"/>
</g>
<text x="96.956131" y="132.07573" fill="#f9f9f9" font-family="Avenir" font-size="50.8px" font-weight="bold" stroke-width="29.686" xml:space="preserve"><tspan x="96.956131" y="132.07573" fill="#f9f9f9" font-size="50.8px" stroke-width="29.687">5</tspan></text>
<text x="87.417503" y="43.831654" fill="#f9f9f9" font-family="Avenir" font-size="7.0556px" font-weight="bold" stroke-width="29.686" xml:space="preserve"><tspan x="87.417503" y="43.831654" fill="#000000" font-size="7.0556px" stroke-width="29.687">Move forward 5.</tspan></text>
<g transform="rotate(180 111.18 123.97)">
<path d="m71.973 51.502a12.371 11.681 0 0 0-1.7033 0.11369 12.371 11.681 0 0 0-9.9968 7.8259l0.0124 0.0052v31.942l22.591-22.591a31.949 31.949 0 0 0-0.023771-0.022221 12.371 11.681 0 0 0-0.68885-12.239 12.371 11.681 0 0 0-10.191-5.0338zm-3.9093 6.3557h6.4957v2.0035h-4.2649l-0.04548 1.6542c0.23272-0.08095 0.55128-0.12144 0.95601-0.12144 0.54639 0 1.0474 0.08099 1.5028 0.24288 0.45532 0.16189 0.84514 0.39999 1.1689 0.71365 0.3339 0.30355 0.59147 0.67773 0.7736 1.1229 0.18213 0.43508 0.27337 0.92588 0.27337 1.4723 0 0.6071-0.10636 1.1486-0.31884 1.6242-0.20236 0.47556-0.4853 0.87998-0.84956 1.2139-0.36426 0.32378-0.79943 0.57161-1.3053 0.74362-0.49579 0.17201-1.0373 0.25838-1.6242 0.25838-0.93088 0-1.71-0.22784-2.3373-0.68316-0.62733-0.45532-1.0571-1.1432-1.2898-2.064l2.3828-0.54674c0.06071 0.38449 0.22268 0.69819 0.48576 0.94103 0.26308 0.23272 0.59189 0.34933 0.9865 0.34933 0.48568 0 0.87011-0.15172 1.1534-0.45527 0.29343-0.30355 0.44028-0.68798 0.44028-1.1534 0-0.35414-0.07612-0.64298-0.22789-0.86558-0.14166-0.23272-0.33387-0.41468-0.57671-0.54622-0.23272-0.14166-0.49567-0.23776-0.7891-0.28836-0.29343-0.05059-0.58714-0.07596-0.88057-0.07596-0.37438 0-0.75342 0.03563-1.1379 0.10645-0.37438 0.07083-0.73882 0.16694-1.093 0.28836z" fill-opacity=".99574" style="paint-order:normal"/>
<text x="86.752098" y="62.978218" fill="#f9f9f9" font-family="Avenir" font-size="7.0556px" font-weight="bold" stroke-width="29.686" xml:space="preserve"><tspan x="86.752098" y="62.978218" fill="#000000" font-size="7.0556px" stroke-width="29.687">Move forward 5.</tspan></text>
</g>
</g>
</svg>
