<?xml version="1.0" encoding="UTF-8"?>
<svg width="113.86mm" height="176.99mm" version="1.1" viewBox="0 0 113.86 176.99" xmlns="http://www.w3.org/2000/svg" xmlns:xlink="http://www.w3.org/1999/xlink">
<defs>
<radialGradient id="a" cx="390.26" cy="190.33" r="36.626" gradientTransform="translate(-289.46 -33.143)" gradientUnits="userSpaceOnUse">
<stop offset="0"/>
<stop stop-color="#464646" offset="1"/>
</radialGradient>
</defs>
<g transform="translate(-43.875 -68.692)">
<rect x="43.875" y="68.692" width="113.86" height="176.99" ry="7.7266" fill="#fff"/>
<path d="m143.84 84.981a2.9104 2.9104 0 0 0-1.7327 0.83457l-5.8126 5.8126a2.9104 2.9104 0 0 0 0 4.1171 2.9104 2.9104 0 0 0 4.115 0l5.8146-5.8141a2.9104 2.9104 0 0 0 0-4.1155 2.9104 2.9104 0 0 0-2.3844-0.83457zm-14.297 2.8639a2.9104 2.9104 0 0 0-2.0567 0.85369l-3.5956 3.5936a2.9104 2.9104 0 0 0 0 4.1155 2.9104 2.9104 0 0 0 4.1155 0l3.5956-3.5941a2.9104 2.9104 0 0 0 0-4.115 2.9104 2.9104 0 0 0-2.0588-0.85369zm21.891 2.4433-24.453 24.453a49.928 49.928 0 0 1 4.8271 3.4039l19.626-19.625zm-18.344 6.9799a2.9104 2.9104 0 0 0-1.85 0.84491l-12.51 12.51a49.928 49.928 0 0 1 5.6327 2.5998l10.993-10.993a2.9104 2.9104 0 0 0 0-4.1171 2.9104 2.9104 0 0 0-2.2655-0.84491zm-12.461 0.64854a2.9104 2.9104 0 0 0-1.85 0.84491l-9.2646 9.2645a49.928 49.928 0 0 1 6.5769 1.6552l6.8027-6.8027a2.9104 2.9104 0 0 0 0-4.1171 2.9104 2.9104 0 0 0-2.265-0.84491zm-15.092 3.6504a2.9104 2.9104 0 0 0-1.85 0.84439l-4.8917 4.8917a49.928 49.928 0 0 1 1.8629-0.0698 49.928 49.928 0 0 1 6.0648 0.3731l1.0795-1.0795a2.9104 2.9104 0 0 0 0-4.1155 2.9104 2.9104 0 0 0-2.2655-0.84439zm45.897 0.66352-17.613 17.612a49.928 49.928 0 0 1 4.1186 4.1134l13.494-13.494zm-7.66 20.769a2.9104 2.9104 0 0 0-1.9053 0.84801l-2.1808 2.1808a49.928 49.928 0 0 1 3.4029 4.8297l2.8934-2.8934a2.9104 2.9104 0 0 0 0-4.1171 2.9104 2.9104 0 0 0-2.2102-0.84801zm7.66 3.8809a2.9104 2.9104 0 0 0-0.2527 0.20722l-6.5081 6.5081a49.928 49.928 0 0 1 2.5838 5.6482l4.177-4.1765zm0 12.076a2.9104 2.9104 0 0 0-0.2527 0.20722l-2.9259 2.9254a49.928 49.928 0 0 1 1.6071 6.6249l1.5715-1.572z" color="#000000" fill="#ccc" stroke-linecap="round"/>
<path d="m57.77 229.38a2.9104 2.9104 0 0 0 1.7327-0.83458l5.8126-5.8126a2.9104 2.9104 0 0 0 0-4.1171 2.9104 2.9104 0 0 0-4.115 0l-5.8146 5.8141a2.9104 2.9104 0 0 0 0 4.1155 2.9104 2.9104 0 0 0 2.3844 0.83458zm14.297-2.8639a2.9104 2.9104 0 0 0 2.0567-0.8537l3.5956-3.5936a2.9104 2.9104 0 0 0 0-4.1155 2.9104 2.9104 0 0 0-4.1155 0l-3.5956 3.5941a2.9104 2.9104 0 0 0 0 4.115 2.9104 2.9104 0 0 0 2.0588 0.8537zm-21.891-2.4433 24.453-24.453a49.928 49.928 0 0 1-4.8271-3.4039l-19.626 19.625zm18.344-6.9799a2.9104 2.9104 0 0 0 1.85-0.84491l12.51-12.51a49.928 49.928 0 0 1-5.6327-2.5998l-10.993 10.993a2.9104 2.9104 0 0 0 0 4.1171 2.9104 2.9104 0 0 0 2.2655 0.84491zm12.461-0.64854a2.9104 2.9104 0 0 0 1.85-0.84491l9.2645-9.2646a49.928 49.928 0 0 1-6.5769-1.6552l-6.8027 6.8027a2.9104 2.9104 0 0 0 0 4.1171 2.9104 2.9104 0 0 0 2.265 0.84491zm15.092-3.6504a2.9104 2.9104 0 0 0 1.85-0.84439l4.8917-4.8917a49.928 49.928 0 0 1-1.8629 0.0698 49.928 49.928 0 0 1-6.0648-0.3731l-1.0795 1.0795a2.9104 2.9104 0 0 0 0 4.1155 2.9104 2.9104 0 0 0 2.2655 0.84439zm-45.897-0.66353 17.613-17.612a49.928 49.928 0 0 1-4.1186-4.1134l-13.494 13.494zm7.66-20.769a2.9104 2.9104 0 0 0 1.9053-0.84801l2.1808-2.1808a49.928 49.928 0 0 1-3.4029-4.8297l-2.8934 2.8934a2.9104 2.9104 0 0 0 0 4.1171 2.9104 2.9104 0 0 0 2.2102 0.84801zm-7.66-3.8809a2.9104 2.9104 0 0 0 0.2527-0.20722l6.5081-6.5081a49.928 49.928 0 0 1-2.5838-5.6482l-4.177 4.1765zm0-12.076a2.9104 2.9104 0 0 0 0.2527-0.20722l2.9259-2.9254a49.928 49.928 0 0 1-1.6071-6.6249l-1.5715 1.572z" color="#000000" fill="#ccc" stroke-linecap="round"/>
<circle cx="100.8" cy="157.19" r="36.626" fill="url(#a)" style="paint-order:normal"/>
<g transform="translate(-261.63 56.646)">
<path d="m330.61 68.721c17.545-17.545 46.096-17.545 63.642 3e-6a3.4017 3.4017 0 0 1 0 4.8107 3.4017 3.4017 0 0 1-4.8107 0c-14.946-14.946-39.075-14.946-54.02-3e-6a3.4017 3.4017 0 0 1-4.8106 0 3.4017 3.4017 0 0 1 0-4.8107z" color="#000000" fill="#edde32" stroke-linecap="round"/>
<path d="m389.44 68.724a3.4017 3.4017 0 0 1 4.8107 3e-6c17.545 17.545 17.545 46.096 0 63.642a3.4017 3.4017 0 0 1-0.0409 0.0337c0.0127-0.0127 0.0257-0.0249 0.0384-0.0377a3.4017 3.4017 0 0 0 1e-5 -4.8107 3.4017 3.4017 0 0 0-4.7756-0.0288c14.913-14.948 14.902-39.053-0.0323-53.988a3.4017 3.4017 0 0 1-3.6e-4 -4.8104z" color="#000000" fill="#76af68" stroke-linecap="round"/>
<path d="m330.57 132.32c0.0141 0.0141 0.0278 0.0285 0.0419 0.0426a3.4017 3.4017 0 0 0 4.8104 3.6e-4 3.4017 3.4017 0 0 0 0.0288-4.7756c14.948 14.913 39.053 14.902 53.988-0.0323a3.4017 3.4017 0 0 1 4.8107 0 3.4017 3.4017 0 0 1-1e-5 4.8107c-17.545 17.545-46.097 17.545-63.642-3.5e-4a3.4017 3.4017 0 0 1-0.0374-0.0457z" color="#000000" fill="#f24139" stroke-linecap="round"/>
<path d="m330.61 68.717a3.4017 3.4017 0 0 1 0.0455-0.03766c-0.0141 0.01407-0.0285 0.02775-0.0426 0.04191a3.4017 3.4017 0 0 0-1e-5 4.8107 3.4017 3.4017 0 0 0 4.7756 0.02876c-14.913 14.948-14.903 39.053 0.032 53.988a3.4017 3.4017 0 0 1 0 4.8107 3.4017 3.4017 0 0 1-4.8104-3.5e-4c-17.545-17.545-17.545-46.096 0-63.642z" color="#000000" fill="#1490df" stroke-linecap="round"/>
<path d="m362.43 54.217c-25.545 0-46.279 20.755-46.279 46.324 0 25.569 20.734 46.326 46.279 46.326 25.545 0 46.279-20.757 46.279-46.326 0-25.569-20.734-46.324-46.279-46.324zm0 2.5c24.192 0 43.779 19.605 43.779 43.824 0 24.219-19.587 43.826-43.779 43.826-24.192 0-43.779-19.607-43.779-43.826 0-24.219 19.587-43.824 43.779-43.824z" color="#000000"/>
<path d="m362.43 62.107c-21.192 0-38.396 17.222-38.396 38.434 0 21.212 17.204 38.436 38.396 38.436s38.396-17.224 38.396-38.436c0-21.212-17.204-38.434-38.396-38.434zm0 2.5c19.84 0 35.896 16.072 35.896 35.934 0 19.862-16.057 35.936-35.896 35.936s-35.896-16.074-35.896-35.936c0-19.862 16.057-35.934 35.896-35.934z" color="#000000"/>
</g>
<text x="49.773903" y="80.023193" fill="#000000" font-family="Avenir" font-size="5.6444px" font-weight="bold" stroke-width="29.687" xml:space="preserve"><tspan x="49.773903" y="80.023193">Move a pawn from your start area to</tspan><tspan x="49.773903" y="87.078743"> take the place of another player's</tspan><tspan x="49.773903" y="94.134293"> pawn, which must return to its own</tspan><tspan x="49.773903" y="101.18984"> start area. Or move forward 4.</tspan></text>
<text transform="scale(-1)" x="-151.37549" y="-234.8943" fill="#000000" font-family="Avenir" font-size="5.6444px" font-weight="bold" stroke-width="29.687" xml:space="preserve"><tspan x="-151.37549" y="-234.8943">Move a pawn from your start area to</tspan><tspan x="-151.37549" y="-227.83875"> take the place of another player's</tspan><tspan x="-151.37549" y="-220.7832"> pawn, which must return to its own</tspan><tspan x="-151.37549" y="-213.72765"> start area. Or move forward 4.</tspan></text>
<g transform="rotate(-2.7572 -1867.9 311.35)" fill="#000000" font-family="Avenir" font-size="25.4px" font-weight="bold" letter-spacing="-2.1167px">
<text x="61.545517" y="260.11078" stroke="#000000" stroke-width="7.9375" xml:space="preserve"><tspan x="61.545517" y="260.11078" fill="#000000" font-family="'Avenir Next'" font-size="25.4px" font-weight="bold" stroke="#000000" stroke-width="7.9375">SORRY?</tspan></text>
<text x="61.545517" y="260.11078" stroke="#ffffff" stroke-width="5.2917" xml:space="preserve"><tspan x="61.545517" y="260.11078" font-family="'Avenir Next'" font-size="25.4px" font-weight="bold" stroke="#ffffff" stroke-width="5.2917">SORRY?</tspan></text>
<text x="61.545517" y="260.11078" stroke-width="2.6458" xml:space="preserve"><tspan x="61.545517" y="260.11078" font-family="'Avenir Next'" font-size="25.4px" font-weight="bold" stroke-width="2.6458">SORRY?</tspan></text>
</g>
<ellipse cx="80.118" cy="156.99" rx="3.2985" ry="3.6765" fill="#fff"/>
</g>
</svg>
