<?xml version="1.0" encoding="UTF-8"?>
<svg width="92.559mm" height="92.65mm" version="1.1" viewBox="0 0 92.559 92.65" xmlns="http://www.w3.org/2000/svg" xmlns:xlink="http://www.w3.org/1999/xlink">
<defs>
<radialGradient id="a" cx="390.26" cy="190.33" r="36.626" gradientTransform="translate(-289.46 -33.143)" gradientUnits="userSpaceOnUse">
<stop offset="0"/>
<stop stop-color="#464646" offset="1"/>
</radialGradient>
</defs>
<g transform="translate(-54.524 -110.86)">
<circle cx="100.8" cy="157.19" r="36.626" fill="url(#a)" style="paint-order:normal"/>
<g transform="translate(-261.63 56.646)">
<path d="m330.61 68.721c17.545-17.545 46.096-17.545 63.642 3e-6a3.4017 3.4017 0 0 1 0 4.8107 3.4017 3.4017 0 0 1-4.8107 0c-14.946-14.946-39.075-14.946-54.02-3e-6a3.4017 3.4017 0 0 1-4.8106 0 3.4017 3.4017 0 0 1 0-4.8107z" color="#000000" fill="#edde32" stroke-linecap="round"/>
<path d="m389.44 68.724a3.4017 3.4017 0 0 1 4.8107 3e-6c17.545 17.545 17.545 46.096 0 63.642a3.4017 3.4017 0 0 1-0.0409 0.0337c0.0127-0.0127 0.0257-0.0249 0.0384-0.0377a3.4017 3.4017 0 0 0 1e-5 -4.8107 3.4017 3.4017 0 0 0-4.7756-0.0288c14.913-14.948 14.902-39.053-0.0323-53.988a3.4017 3.4017 0 0 1-3.6e-4 -4.8104z" color="#000000" fill="#76af68" stroke-linecap="round"/>
<path d="m330.57 132.32c0.0141 0.0141 0.0278 0.0285 0.0419 0.0426a3.4017 3.4017 0 0 0 4.8104 3.6e-4 3.4017 3.4017 0 0 0 0.0288-4.7756c14.948 14.913 39.053 14.902 53.988-0.0323a3.4017 3.4017 0 0 1 4.8107 0 3.4017 3.4017 0 0 1-1e-5 4.8107c-17.545 17.545-46.097 17.545-63.642-3.5e-4a3.4017 3.4017 0 0 1-0.0374-0.0457z" color="#000000" fill="#f24139" stroke-linecap="round"/>
<path d="m330.61 68.717a3.4017 3.4017 0 0 1 0.0455-0.03766c-0.0141 0.01407-0.0285 0.02775-0.0426 0.04191a3.4017 3.4017 0 0 0-1e-5 4.8107 3.4017 3.4017 0 0 0 4.7756 0.02876c-14.913 14.948-14.903 39.053 0.032 53.988a3.4017 3.4017 0 0 1 0 4.8107 3.4017 3.4017 0 0 1-4.8104-3.5e-4c-17.545-17.545-17.545-46.096 0-63.642z" color="#000000" fill="#1490df" stroke-linecap="round"/>
<path d="m362.43 54.217c-25.545 0-46.279 20.755-46.279 46.324 0 25.569 20.734 46.326 46.279 46.326 25.545 0 46.279-20.757 46.279-46.326 0-25.569-20.734-46.324-46.279-46.324zm0 2.5c24.192 0 43.779 19.605 43.779 43.824 0 24.219-19.587 43.826-43.779 43.826-24.192 0-43.779-19.607-43.779-43.826 0-24.219 19.587-43.824 43.779-43.824z" color="#000000"/>
<path d="m362.43 62.107c-21.192 0-38.396 17.222-38.396 38.434 0 21.212 17.204 38.436 38.396 38.436s38.396-17.224 38.396-38.436c0-21.212-17.204-38.434-38.396-38.434zm0 2.5c19.84 0 35.896 16.072 35.896 35.934 0 19.862-16.057 35.936-35.896 35.936s-35.896-16.074-35.896-35.936c0-19.862 16.057-35.934 35.896-35.934z" color="#000000"/>
</g>
<g transform="translate(-1.5857)" fill="#000000" font-family="Avenir" font-size="25.4px" font-weight="bold" letter-spacing="-1.3229px">
<text transform="rotate(-2.7572)" x="68.434128" y="170.00655" stroke="#000000" stroke-width="7.9375" xml:space="preserve"><tspan x="68.434128" y="170.00655" fill="#000000" font-family="'Avenir Next'" font-size="25.4px" font-weight="bold" stroke="#000000" stroke-width="7.9375">Start</tspan></text>
<text transform="rotate(-2.7572)" x="68.434128" y="170.00655" stroke="#ffffff" stroke-width="5.2917" xml:space="preserve"><tspan x="68.434128" y="170.00655" font-family="'Avenir Next'" font-size="25.4px" font-weight="bold" stroke="#ffffff" stroke-width="5.2917">Start</tspan></text>
<text transform="rotate(-2.7572)" x="68.434128" y="170.00655" stroke-width="2.6458" xml:space="preserve"><tspan x="68.434128" y="170.00655" font-family="'Avenir Next'" font-size="25.4px" font-weight="bold" stroke-width="2.6458">Start</tspan></text>
</g>
</g>
</svg>
